<?xml version="1.0" encoding="UTF-8" standalone="no"?>
<!DOCTYPE svg PUBLIC "-//W3C//DTD SVG 1.1//EN" "http://www.w3.org/Graphics/SVG/1.1/DTD/svg11.dtd">
<svg version="1.1" xmlns="http://www.w3.org/2000/svg" xmlns:xlink="http://www.w3.org/1999/xlink" preserveAspectRatio="xMidYMid meet" viewBox="0 0 640 640" width="640" height="640"><defs><path d="M585.23 302.92C585.23 297.3 584.99 291.73 584.65 286.2C585.4 286.42 586.17 286.54 586.94 286.54C589.41 286.54 591.84 285.36 593.36 283.19C595.82 279.65 594.96 274.77 591.43 272.31C590.54 271.69 583.54 266.81 582.65 266.2C581.04 254.51 578.7 243.07 575.65 231.92C576.4 232.34 582.32 235.74 583.06 236.17C584.31 236.87 585.62 237.19 586.95 237.19C589.65 237.19 592.3 235.79 593.73 233.27C595.89 229.53 594.59 224.74 590.85 222.61C588.63 221.33 570.85 211.15 568.63 209.88C563.52 196.05 557.27 182.78 550.04 170.12C551.03 169.34 558.94 163 559.93 162.21C563.3 159.52 563.84 154.6 561.15 151.23C558.45 147.87 553.55 147.3 550.16 150.02C549.33 150.67 542.68 156 541.85 156.66C535.1 146.3 527.67 136.41 519.61 127.1C521.37 125.68 535.49 114.37 537.25 112.96C540.62 110.26 541.18 105.34 538.46 101.98C535.78 98.61 530.86 98.05 527.48 100.76C525.64 102.23 510.86 114.05 509.02 115.54C503.25 109.58 497.2 103.91 490.9 98.51C491.09 98.35 492.64 97.11 492.84 96.95C496.21 94.24 496.76 89.34 494.06 85.95C491.36 82.59 486.44 82.04 483.08 84.74C482.61 85.12 478.93 88.07 478.46 88.43C470.13 82.11 461.42 76.29 452.37 70.96C452.37 69.97 452.35 61.99 452.35 61C452.33 56.68 448.83 53.2 444.53 53.2C444.53 53.2 444.53 53.2 444.53 53.2C440.21 53.21 436.72 56.71 436.72 61.04C436.72 61.17 436.72 62.28 436.72 62.44C428.32 58.2 419.68 54.37 410.79 51.03C411.24 50.79 414.83 48.98 415.27 48.76C419.1 46.79 420.62 42.08 418.65 38.23C416.67 34.39 411.97 32.87 408.13 34.85C406.3 35.77 391.75 43.26 389.92 44.18C383.38 42.32 376.77 40.61 370.04 39.24C370.69 36.9 370.26 34.31 368.64 32.27C365.94 28.89 361.02 28.35 357.66 31.04C357.01 31.56 351.9 35.66 351.26 36.17C340.84 34.8 330.25 34.02 319.5 33.88C322.03 31.1 322.25 26.81 319.83 23.77C317.13 20.42 312.21 19.86 308.85 22.56C307.43 23.68 296.12 32.75 294.7 33.88C294.36 34.15 294.06 34.48 293.77 34.8C281.25 35.84 268.97 37.72 256.98 40.42C255.81 39.26 246.51 29.95 245.34 28.79C242.29 25.73 237.35 25.73 234.29 28.79C231.25 31.85 231.25 36.78 234.29 39.84C234.81 40.35 238.92 44.47 239.45 44.98C223.26 49.8 207.74 56.1 192.98 63.73C191.34 63.1 178.22 58.1 176.58 57.47C172.55 55.95 168.03 57.94 166.49 61.97C164.95 66.01 166.97 70.53 171 72.07C171.42 72.22 174.84 73.54 175.27 73.69C163.14 81.17 151.68 89.63 140.9 98.88C140.07 96.17 137.78 94.02 134.79 93.5C130.55 92.77 126.51 95.66 125.77 99.91C125.51 101.48 123.4 114.03 123.12 115.6C113.56 125.46 104.76 136.05 96.77 147.25C96.17 146.84 91.46 143.56 90.88 143.15C87.34 140.68 82.47 141.55 80 145.08C77.54 148.62 78.39 153.5 81.93 155.96C82.54 156.39 87.44 159.82 88.06 160.25C82.23 169.52 76.96 179.19 72.26 189.18C71.58 188.5 66.03 182.95 65.33 182.25C62.29 179.21 57.33 179.21 54.28 182.25C51.24 185.31 51.24 190.26 54.28 193.3C55.42 194.44 64.49 203.53 65.63 204.66C61.69 214.67 58.27 224.93 55.54 235.49C54.02 236.41 41.81 243.89 40.29 244.83C36.6 247.08 35.45 251.88 37.71 255.57C39.18 257.98 41.74 259.3 44.37 259.3C45.77 259.3 47.17 258.94 48.45 258.15C48.71 257.98 50.79 256.7 51.06 256.55C49.31 266.61 48.06 276.85 47.48 287.27C46.33 287.82 37.16 292.21 36.02 292.75C32.12 294.62 30.48 299.28 32.35 303.17C33.69 305.97 36.5 307.61 39.42 307.61C40.54 307.61 41.69 307.37 42.78 306.84C43.21 306.64 46.59 305.02 47.02 304.81C47.05 308.89 47.19 312.98 47.39 317.02C34.91 322.2 23.55 330.04 19.3 339.84C18.56 341.52 18.44 343.41 18.97 345.17C24.92 365.21 72.5 525.41 78.44 545.43C82.2 562.61 97.71 594.55 130.13 594.55C167.33 594.55 464.87 594.55 502.07 594.55C534.48 594.55 549.98 562.59 553.75 545.41C559.69 525.39 607.28 365.21 613.22 345.19C613.75 343.43 613.63 341.53 612.9 339.86C608.66 330.07 597.3 322.22 584.8 317.04C585.04 312.34 585.23 307.63 585.23 302.92ZM96.6 281.05C100.49 279.19 102.13 274.53 100.27 270.64C98.39 266.74 93.75 265.1 89.85 266.98C87.24 268.23 66.35 278.24 63.75 279.5C65.77 257.67 70.52 236.65 77.73 216.77C79.6 218.65 94.62 233.66 96.5 235.52C98.02 237.06 100.01 237.81 102.01 237.81C104.03 237.81 106.01 237.06 107.55 235.52C110.6 232.46 110.6 227.53 107.55 224.47C105.21 222.13 86.44 203.38 84.08 201.02C93.03 180.76 104.54 161.87 118.22 144.79C117.98 146.19 116.1 157.36 115.86 158.76C115.15 163.02 118.02 167.05 122.27 167.77C122.71 167.85 123.14 167.89 123.57 167.89C127.33 167.89 130.62 165.17 131.27 161.36C131.92 157.54 137.09 126.86 137.74 123.02C169 92.03 208.27 69.1 252.11 57.64C254.55 60.08 274.07 79.6 276.52 82.04C278.04 83.58 280.05 84.33 282.05 84.33C284.05 84.33 286.05 83.58 287.58 82.04C290.62 79 290.62 74.05 287.58 70.99C285.84 69.27 271.99 55.4 270.25 53.67C285.14 50.94 300.46 49.44 316.12 49.44C334.21 49.44 351.85 51.37 368.9 54.99C367.52 55.71 356.45 61.38 355.06 62.08C351.22 64.04 349.7 68.76 351.68 72.6C353.07 75.3 355.8 76.85 358.63 76.85C359.83 76.85 361.06 76.56 362.2 75.98C365.14 74.48 388.66 62.42 391.6 60.9C407.38 65.83 422.49 72.27 436.79 80.03C436.81 84.09 436.88 116.65 436.89 120.73C436.91 125.03 440.41 128.52 444.71 128.52C444.71 128.52 444.71 128.52 444.73 128.52C449.04 128.52 452.52 125 452.52 120.69C452.52 117.55 452.45 92.5 452.43 89.35C468.56 99.69 483.45 111.74 496.81 125.34C495.22 126.6 482.49 136.78 480.91 138.05C477.56 140.75 477 145.66 479.69 149.03C481.25 150.96 483.5 151.97 485.81 151.97C487.52 151.97 489.24 151.4 490.68 150.24C492.35 148.91 505.74 138.2 507.41 136.85C523.11 154.9 536.28 175.16 546.41 197.13C545.67 196.7 539.81 193.35 539.08 192.92C535.34 190.77 530.56 192.07 528.42 195.81C526.27 199.57 527.57 204.33 531.31 206.49C533.77 207.89 553.34 219.11 555.8 220.51C561.27 236.37 565.19 252.94 567.41 270.04C567.36 270.98 567.48 271.92 567.77 272.82C568.95 282.69 569.62 292.7 569.62 302.88C569.62 305.96 569.57 309.01 569.45 312.07C563.9 310.81 558.6 310.11 554.09 310.11C543.81 310.11 532.13 316.67 519.75 323.62C515.82 325.82 511.7 328.11 507.76 330.09C506.24 328.21 494.02 313.16 492.5 311.27C489.77 307.92 484.85 307.41 481.5 310.12C478.16 312.86 477.64 317.78 480.36 321.12C481.49 322.51 490.47 333.57 491.58 334.96C485.47 334.15 476.29 328.69 468.11 323.74C456.5 316.73 445.52 310.11 435.12 310.11C424.83 310.11 413.15 316.67 400.77 323.62C391.15 329.01 380.24 335.13 374.06 335.13C368.01 335.13 357.98 329.07 349.12 323.74C337.51 316.73 326.52 310.12 316.14 310.12C305.74 310.12 294.76 316.73 283.14 323.74C274.29 329.07 264.27 335.13 258.22 335.13C252.02 335.13 241.13 329.01 231.51 323.62C219.13 316.67 207.43 310.11 197.16 310.11C186.76 310.11 175.78 316.73 164.17 323.74C162.06 325 159.9 326.32 157.73 327.56C157.42 326.09 154.87 314.24 154.57 312.77C153.66 308.54 149.49 305.84 145.29 306.76C141.07 307.66 138.38 311.81 139.28 316.03C139.67 317.88 142.83 332.58 143.23 334.43C141.77 334.84 140.43 335.13 139.25 335.13C133.06 335.13 122.15 329.01 112.53 323.62C100.15 316.67 88.47 310.11 78.19 310.11C73.68 310.11 68.38 310.81 62.83 312.07C62.68 309.05 62.63 305.97 62.63 302.92C62.63 301.02 62.73 299.16 62.76 297.28C66.15 295.66 93.22 282.68 96.6 281.05ZM502.07 578.94C464.89 578.94 167.33 578.94 130.14 578.94C102.06 578.94 94 543.38 93.68 541.89C93.64 541.69 93.59 541.48 93.54 541.28C87.67 521.55 40.77 363.62 34.91 343.87C41.59 334.43 63.98 325.77 78.15 325.77C84.34 325.77 95.25 331.88 104.87 337.28C117.25 344.21 128.93 350.79 139.21 350.79C149.61 350.79 160.58 344.16 172.19 337.16C181.04 331.81 191.08 325.77 197.13 325.77C203.33 325.77 214.23 331.88 223.84 337.28C236.22 344.23 247.91 350.79 258.19 350.79C268.59 350.79 279.56 344.16 291.19 337.18C300.03 331.83 310.06 325.79 316.11 325.79C322.17 325.79 332.18 331.83 341.02 337.16C352.66 344.16 363.64 350.79 374.04 350.79C384.3 350.79 396 344.23 408.39 337.28C418 331.88 428.9 325.77 435.08 325.77C441.15 325.77 451.17 331.81 460.02 337.16C471.63 344.16 482.61 350.79 493.02 350.79C503.28 350.79 514.98 344.21 527.36 337.28C536.98 331.88 547.88 325.77 554.06 325.77C568.22 325.77 590.63 334.43 597.32 343.87C593.41 357.04 573.87 422.83 538.69 541.26C538.62 541.52 538.57 541.71 538.53 541.84C538.21 543.35 530.15 578.94 502.07 578.94Z" id="b49wLyaRFq"></path><path d="M585.23 302.92C585.23 297.3 584.99 291.73 584.65 286.2C585.4 286.42 586.17 286.54 586.94 286.54C589.41 286.54 591.84 285.36 593.36 283.19C595.82 279.65 594.96 274.77 591.43 272.31C590.54 271.69 583.54 266.81 582.65 266.2C581.04 254.51 578.7 243.07 575.65 231.92C576.4 232.34 582.32 235.74 583.06 236.17C584.31 236.87 585.62 237.19 586.95 237.19C589.65 237.19 592.3 235.79 593.73 233.27C595.89 229.53 594.59 224.74 590.85 222.61C588.63 221.33 570.85 211.15 568.63 209.88C563.52 196.05 557.27 182.78 550.04 170.12C551.03 169.34 558.94 163 559.93 162.21C563.3 159.52 563.84 154.6 561.15 151.23C558.45 147.87 553.55 147.3 550.16 150.02C549.33 150.67 542.68 156 541.85 156.66C535.1 146.3 527.67 136.41 519.61 127.1C521.37 125.68 535.49 114.37 537.25 112.96C540.62 110.26 541.18 105.34 538.46 101.98C535.78 98.61 530.86 98.05 527.48 100.76C525.64 102.23 510.86 114.05 509.02 115.54C503.25 109.58 497.2 103.91 490.9 98.51C491.09 98.35 492.64 97.11 492.84 96.95C496.21 94.24 496.76 89.34 494.06 85.95C491.36 82.59 486.44 82.04 483.08 84.74C482.61 85.12 478.93 88.07 478.46 88.43C470.13 82.11 461.42 76.29 452.37 70.96C452.37 69.97 452.35 61.99 452.35 61C452.33 56.68 448.83 53.2 444.53 53.2C444.53 53.2 444.53 53.2 444.53 53.2C440.21 53.21 436.72 56.71 436.72 61.04C436.72 61.17 436.72 62.28 436.72 62.44C428.32 58.2 419.68 54.37 410.79 51.03C411.24 50.79 414.83 48.98 415.27 48.76C419.1 46.79 420.62 42.08 418.65 38.23C416.67 34.39 411.97 32.87 408.13 34.85C406.3 35.77 391.75 43.26 389.92 44.18C383.38 42.32 376.77 40.61 370.04 39.24C370.69 36.9 370.26 34.31 368.64 32.27C365.94 28.89 361.02 28.35 357.66 31.04C357.01 31.56 351.9 35.66 351.26 36.17C340.84 34.8 330.25 34.02 319.5 33.88C322.03 31.1 322.25 26.81 319.83 23.77C317.13 20.42 312.21 19.86 308.85 22.56C307.43 23.68 296.12 32.75 294.7 33.88C294.36 34.15 294.06 34.48 293.77 34.8C281.25 35.84 268.97 37.72 256.98 40.42C255.81 39.26 246.51 29.95 245.34 28.79C242.29 25.73 237.35 25.73 234.29 28.79C231.25 31.85 231.25 36.78 234.29 39.84C234.81 40.35 238.92 44.47 239.45 44.98C223.26 49.8 207.74 56.1 192.98 63.73C191.34 63.1 178.22 58.1 176.58 57.47C172.55 55.95 168.03 57.94 166.49 61.97C164.95 66.01 166.97 70.53 171 72.07C171.42 72.22 174.84 73.54 175.27 73.69C163.14 81.17 151.68 89.63 140.9 98.88C140.07 96.17 137.78 94.02 134.79 93.5C130.55 92.77 126.51 95.66 125.77 99.91C125.51 101.48 123.4 114.03 123.12 115.6C113.56 125.46 104.76 136.05 96.77 147.25C96.17 146.84 91.46 143.56 90.88 143.15C87.34 140.68 82.47 141.55 80 145.08C77.54 148.62 78.39 153.5 81.93 155.96C82.54 156.39 87.44 159.82 88.06 160.25C82.23 169.52 76.96 179.19 72.26 189.18C71.58 188.5 66.03 182.95 65.33 182.25C62.29 179.21 57.33 179.21 54.28 182.25C51.24 185.31 51.24 190.26 54.28 193.3C55.42 194.44 64.49 203.53 65.63 204.66C61.69 214.67 58.27 224.93 55.54 235.49C54.02 236.41 41.81 243.89 40.29 244.83C36.6 247.08 35.45 251.88 37.71 255.57C39.18 257.98 41.74 259.3 44.37 259.3C45.77 259.3 47.17 258.94 48.45 258.15C48.71 257.98 50.79 256.7 51.06 256.55C49.31 266.61 48.06 276.85 47.48 287.27C46.33 287.82 37.16 292.21 36.02 292.75C32.12 294.62 30.48 299.28 32.35 303.17C33.69 305.97 36.5 307.61 39.42 307.61C40.54 307.61 41.69 307.37 42.78 306.84C43.21 306.64 46.59 305.02 47.02 304.81C47.05 308.89 47.19 312.98 47.39 317.02C34.91 322.2 23.55 330.04 19.3 339.84C18.56 341.52 18.44 343.41 18.97 345.17C24.92 365.21 72.5 525.41 78.44 545.43C82.2 562.61 97.71 594.55 130.13 594.55C167.33 594.55 464.87 594.55 502.07 594.55C534.48 594.55 549.98 562.59 553.75 545.41C559.69 525.39 607.28 365.21 613.22 345.19C613.75 343.43 613.63 341.53 612.9 339.86C608.66 330.07 597.3 322.22 584.8 317.04C585.04 312.34 585.23 307.63 585.23 302.92ZM96.6 281.05C100.49 279.19 102.13 274.53 100.27 270.64C98.39 266.74 93.75 265.1 89.85 266.98C87.24 268.23 66.35 278.24 63.75 279.5C65.77 257.67 70.52 236.65 77.73 216.77C79.6 218.65 94.62 233.66 96.5 235.52C98.02 237.06 100.01 237.81 102.01 237.81C104.03 237.81 106.01 237.06 107.55 235.52C110.6 232.46 110.6 227.53 107.55 224.47C105.21 222.13 86.44 203.38 84.08 201.02C93.03 180.76 104.54 161.87 118.22 144.79C117.98 146.19 116.1 157.36 115.86 158.76C115.15 163.02 118.02 167.05 122.27 167.77C122.71 167.85 123.14 167.89 123.57 167.89C127.33 167.89 130.62 165.17 131.27 161.36C131.92 157.54 137.09 126.86 137.74 123.02C169 92.03 208.27 69.1 252.11 57.64C254.55 60.08 274.07 79.6 276.52 82.04C278.04 83.58 280.05 84.33 282.05 84.33C284.05 84.33 286.05 83.58 287.58 82.04C290.62 79 290.62 74.05 287.58 70.99C285.84 69.27 271.99 55.4 270.25 53.67C285.14 50.94 300.46 49.44 316.12 49.44C334.21 49.44 351.85 51.37 368.9 54.99C367.52 55.71 356.45 61.38 355.06 62.08C351.22 64.04 349.7 68.76 351.68 72.6C353.07 75.3 355.8 76.85 358.63 76.85C359.83 76.85 361.06 76.56 362.2 75.98C365.14 74.48 388.66 62.42 391.6 60.9C407.38 65.83 422.49 72.27 436.79 80.03C436.81 84.09 436.88 116.65 436.89 120.73C436.91 125.03 440.41 128.52 444.71 128.52C444.71 128.52 444.71 128.52 444.73 128.52C449.04 128.52 452.52 125 452.52 120.69C452.52 117.55 452.45 92.5 452.43 89.35C468.56 99.69 483.45 111.74 496.81 125.34C495.22 126.6 482.49 136.78 480.91 138.05C477.56 140.75 477 145.66 479.69 149.03C481.25 150.96 483.5 151.97 485.81 151.97C487.52 151.97 489.24 151.4 490.68 150.24C492.35 148.91 505.74 138.2 507.41 136.85C523.11 154.9 536.28 175.16 546.41 197.13C545.67 196.7 539.81 193.35 539.08 192.92C535.34 190.77 530.56 192.07 528.42 195.81C526.27 199.57 527.57 204.33 531.31 206.49C533.77 207.89 553.34 219.11 555.8 220.51C561.27 236.37 565.19 252.94 567.41 270.04C567.36 270.98 567.48 271.92 567.77 272.82C568.95 282.69 569.62 292.7 569.62 302.88C569.62 305.96 569.57 309.01 569.45 312.07C563.9 310.81 558.6 310.11 554.09 310.11C543.81 310.11 532.13 316.67 519.75 323.62C515.82 325.82 511.7 328.11 507.76 330.09C506.24 328.21 494.02 313.16 492.5 311.27C489.77 307.92 484.85 307.41 481.5 310.12C478.16 312.86 477.64 317.78 480.36 321.12C481.49 322.51 490.47 333.57 491.58 334.96C485.47 334.15 476.29 328.69 468.11 323.74C456.5 316.73 445.52 310.11 435.12 310.11C424.83 310.11 413.15 316.67 400.77 323.62C391.15 329.01 380.24 335.13 374.06 335.13C368.01 335.13 357.98 329.07 349.12 323.74C337.51 316.73 326.52 310.12 316.14 310.12C305.74 310.12 294.76 316.73 283.14 323.74C274.29 329.07 264.27 335.13 258.22 335.13C252.02 335.13 241.13 329.01 231.51 323.62C219.13 316.67 207.43 310.11 197.16 310.11C186.76 310.11 175.78 316.73 164.17 323.74C162.06 325 159.9 326.32 157.73 327.56C157.42 326.09 154.87 314.24 154.57 312.77C153.66 308.54 149.49 305.84 145.29 306.76C141.07 307.66 138.38 311.81 139.28 316.03C139.67 317.88 142.83 332.58 143.23 334.43C141.77 334.84 140.43 335.13 139.25 335.13C133.06 335.13 122.15 329.01 112.53 323.62C100.15 316.67 88.47 310.11 78.19 310.11C73.68 310.11 68.38 310.81 62.83 312.07C62.68 309.05 62.63 305.97 62.63 302.92C62.63 301.02 62.73 299.16 62.76 297.28C66.15 295.66 93.22 282.68 96.6 281.05ZM502.07 578.94C464.89 578.94 167.33 578.94 130.14 578.94C102.06 578.94 94 543.38 93.68 541.89C93.64 541.69 93.59 541.48 93.54 541.28C87.67 521.55 40.77 363.62 34.91 343.87C41.59 334.43 63.98 325.77 78.15 325.77C84.34 325.77 95.25 331.88 104.87 337.28C117.25 344.21 128.93 350.79 139.21 350.79C149.61 350.79 160.58 344.16 172.19 337.16C181.04 331.81 191.08 325.77 197.13 325.77C203.33 325.77 214.23 331.88 223.84 337.28C236.22 344.23 247.91 350.79 258.19 350.79C268.59 350.79 279.56 344.16 291.19 337.18C300.03 331.83 310.06 325.79 316.11 325.79C322.17 325.79 332.18 331.83 341.02 337.16C352.66 344.16 363.64 350.79 374.04 350.79C384.3 350.79 396 344.23 408.39 337.28C418 331.88 428.9 325.77 435.08 325.77C441.15 325.77 451.17 331.81 460.02 337.16C471.63 344.16 482.61 350.79 493.02 350.79C503.28 350.79 514.98 344.21 527.36 337.28C536.98 331.88 547.88 325.77 554.06 325.77C568.22 325.77 590.63 334.43 597.32 343.87C593.41 357.04 573.87 422.83 538.69 541.26C538.62 541.52 538.57 541.71 538.53 541.84C538.21 543.35 530.15 578.94 502.07 578.94Z" id="bX3m5jsFZ"></path><path d="M498.58 188.62C502.43 186.66 503.95 181.94 501.97 178.1C500 174.26 495.3 172.74 491.46 174.72C486.15 177.43 443.67 199.23 438.36 201.94C434.52 203.91 433 208.62 434.98 212.46C436.36 215.16 439.1 216.72 441.93 216.72C443.13 216.72 444.36 216.44 445.5 215.84C450.8 213.13 493.27 191.34 498.58 188.62Z" id="a52TKicgr3"></path><path d="M498.58 188.62C502.43 186.66 503.95 181.94 501.97 178.1C500 174.26 495.3 172.74 491.46 174.72C486.15 177.43 443.67 199.23 438.36 201.94C434.52 203.91 433 208.62 434.98 212.46C436.36 215.16 439.1 216.72 441.93 216.72C443.13 216.72 444.36 216.44 445.5 215.84C450.8 213.13 493.27 191.34 498.58 188.62Z" id="c1z3yiqsV0"></path><path d="M293.12 164.83C295.46 159.35 314.16 115.42 316.48 109.93C318.17 105.95 316.33 101.38 312.35 99.69C308.39 98 303.79 99.84 302.1 103.82C299.76 109.3 281.08 153.23 278.74 158.73C277.06 162.69 278.91 167.29 282.87 168.98C283.88 169.41 284.9 169.59 285.93 169.59C288.97 169.59 291.85 167.82 293.12 164.83Z" id="cP4fCktqD"></path><path d="M293.12 164.83C295.46 159.35 314.16 115.42 316.48 109.93C318.17 105.95 316.33 101.38 312.35 99.69C308.39 98 303.79 99.84 302.1 103.82C299.76 109.3 281.08 153.23 278.74 158.73C277.06 162.69 278.91 167.29 282.87 168.98C283.88 169.41 284.9 169.59 285.93 169.59C288.97 169.59 291.85 167.82 293.12 164.83Z" id="bmYvSBifP"></path><path d="M258.65 210.52C260.08 211.61 261.76 212.14 263.43 212.14C265.77 212.14 268.08 211.1 269.61 209.1C272.26 205.68 271.63 200.78 268.21 198.13C263.5 194.5 225.74 165.29 221.01 161.65C217.59 159 212.69 159.64 210.04 163.05C207.41 166.47 208.03 171.37 211.44 174.02C216.16 177.65 253.94 206.86 258.65 210.52Z" id="a4TE9jLOJV"></path><path d="M258.65 210.52C260.08 211.61 261.76 212.14 263.43 212.14C265.77 212.14 268.08 211.1 269.61 209.1C272.26 205.68 271.63 200.78 268.21 198.13C263.5 194.5 225.74 165.29 221.01 161.65C217.59 159 212.69 159.64 210.04 163.05C207.41 166.47 208.03 171.37 211.44 174.02C216.16 177.65 253.94 206.86 258.65 210.52Z" id="d2whS5IM8k"></path><path d="M275.87 294.67C276.21 294.7 276.57 294.74 276.91 294.74C280.77 294.74 284.12 291.88 284.64 287.97C285.23 283.7 282.24 279.76 277.95 279.18C272.04 278.37 224.75 271.97 218.82 271.17C214.52 270.58 210.61 273.57 210.02 277.86C209.44 282.13 212.45 286.06 216.72 286.64C222.65 287.44 269.94 293.86 275.87 294.67Z" id="b1ZNX83jTE"></path><path d="M275.87 294.67C276.21 294.7 276.57 294.74 276.91 294.74C280.77 294.74 284.12 291.88 284.64 287.97C285.23 283.7 282.24 279.76 277.95 279.18C272.04 278.37 224.75 271.97 218.82 271.17C214.52 270.58 210.61 273.57 210.02 277.86C209.44 282.13 212.45 286.06 216.72 286.64C222.65 287.44 269.94 293.86 275.87 294.67Z" id="hXySfKKFW"></path><path d="M313.61 258.01C318.58 254.7 358.36 228.31 363.33 225.02C366.93 222.63 367.91 217.77 365.52 214.19C363.13 210.58 358.29 209.61 354.69 212C349.72 215.3 309.94 241.69 304.97 244.98C301.38 247.37 300.39 252.22 302.78 255.81C304.29 258.08 306.78 259.31 309.29 259.31C310.78 259.31 312.28 258.89 313.61 258.01Z" id="a2U2rqEdL"></path><path d="M313.61 258.01C318.58 254.7 358.36 228.31 363.33 225.02C366.93 222.63 367.91 217.77 365.52 214.19C363.13 210.58 358.29 209.61 354.69 212C349.72 215.3 309.94 241.69 304.97 244.98C301.38 247.37 300.39 252.22 302.78 255.81C304.29 258.08 306.78 259.31 309.29 259.31C310.78 259.31 312.28 258.89 313.61 258.01Z" id="e5e7yNLzy1"></path><path d="M395.05 186.76C398.96 184.95 400.67 180.3 398.84 176.39C396.35 170.98 376.28 127.66 373.78 122.25C371.97 118.32 367.31 116.61 363.42 118.44C359.49 120.25 357.78 124.88 359.59 128.81C361.26 132.41 369.63 150.46 384.66 182.95C387.43 185.97 389.79 187.48 391.77 187.48C392.86 187.48 393.97 187.24 395.05 186.76Z" id="b1up231xeI"></path><path d="M395.05 186.76C398.96 184.95 400.67 180.3 398.84 176.39C396.35 170.98 376.28 127.66 373.78 122.25C371.97 118.32 367.31 116.61 363.42 118.44C359.49 120.25 357.78 124.88 359.59 128.81C361.26 132.41 369.63 150.46 384.66 182.95C387.43 185.97 389.79 187.48 391.77 187.48C392.86 187.48 393.97 187.24 395.05 186.76Z" id="k1Mztox2J"></path><path d="M524.68 292.69C526.17 294.05 528.05 294.74 529.92 294.74C532.06 294.74 534.16 293.86 535.71 292.17C538.62 288.98 538.38 284.04 535.19 281.14C530.78 277.13 495.44 245.02 491.03 241C487.84 238.08 482.9 238.32 480 241.52C477.1 244.73 477.34 249.66 480.51 252.55C484.94 256.56 520.26 288.67 524.68 292.69Z" id="auvSnbIMK"></path><path d="M524.68 292.69C526.17 294.05 528.05 294.74 529.92 294.74C532.06 294.74 534.16 293.86 535.71 292.17C538.62 288.98 538.38 284.04 535.19 281.14C530.78 277.13 495.44 245.02 491.03 241C487.84 238.08 482.9 238.32 480 241.52C477.1 244.73 477.34 249.66 480.51 252.55C484.94 256.56 520.26 288.67 524.68 292.69Z" id="f7bVHYWnK"></path><path d="M151 259.79C153.95 254.6 177.57 213.11 180.53 207.94C182.66 204.18 181.35 199.41 177.59 197.28C173.85 195.14 169.07 196.44 166.93 200.2C163.98 205.39 140.37 246.86 137.42 252.05C135.28 255.81 136.6 260.58 140.34 262.71C141.57 263.41 142.88 263.74 144.2 263.74C146.92 263.74 149.56 262.32 151 259.79Z" id="b2QwNH7tcb"></path><path d="M151 259.79C153.95 254.6 177.57 213.11 180.53 207.94C182.66 204.18 181.35 199.41 177.59 197.28C173.85 195.14 169.07 196.44 166.93 200.2C163.98 205.39 140.37 246.86 137.42 252.05C135.28 255.81 136.6 260.58 140.34 262.71C141.57 263.41 142.88 263.74 144.2 263.74C146.92 263.74 149.56 262.32 151 259.79Z" id="aheTVIYgR"></path><path d="M391.94 318.32C394.89 313.13 418.51 271.64 421.47 266.47C423.6 262.71 422.29 257.95 418.55 255.81C414.79 253.66 410.01 254.97 407.87 258.71C404.92 263.91 381.3 305.38 378.36 310.57C376.23 314.33 377.52 319.09 381.28 321.24C382.51 321.93 383.84 322.25 385.16 322.25C387.87 322.25 390.5 320.85 391.94 318.32Z" id="bBv6higE6"></path><path d="M391.94 318.32C394.89 313.13 418.51 271.64 421.47 266.47C423.6 262.71 422.29 257.95 418.55 255.81C414.79 253.66 410.01 254.97 407.87 258.71C404.92 263.91 381.3 305.38 378.36 310.57C376.23 314.33 377.52 319.09 381.28 321.24C382.51 321.93 383.84 322.25 385.16 322.25C387.87 322.25 390.5 320.85 391.94 318.32Z" id="b1dX00ozlX"></path><path d="M237.86 99.79C241.23 97.09 241.78 92.17 239.08 88.81C236.38 85.44 231.48 84.88 228.09 87.58C223.45 91.32 186.16 121.14 181.5 124.86C178.14 127.56 177.59 132.48 180.29 135.84C181.83 137.77 184.1 138.78 186.39 138.78C188.11 138.78 189.84 138.22 191.27 137.06C195.93 133.33 233.2 103.51 237.86 99.79Z" id="a4BEegKIvX"></path><path d="M237.86 99.79C241.23 97.09 241.78 92.17 239.08 88.81C236.38 85.44 231.48 84.88 228.09 87.58C223.45 91.32 186.16 121.14 181.5 124.86C178.14 127.56 177.59 132.48 180.29 135.84C181.83 137.77 184.1 138.78 186.39 138.78C188.11 138.78 189.84 138.22 191.27 137.06C195.93 133.33 233.2 103.51 237.86 99.79Z" id="b1k4bspMdq"></path></defs><g><g><g><use xlink:href="#b49wLyaRFq" opacity="1" fill="#7d4106" fill-opacity="1"></use><g><use xlink:href="#b49wLyaRFq" opacity="1" fill-opacity="0" stroke="#000000" stroke-width="1" stroke-opacity="0"></use></g></g><g><use xlink:href="#bX3m5jsFZ" opacity="1" fill="#000000" fill-opacity="0"></use><g><use xlink:href="#bX3m5jsFZ" opacity="1" fill-opacity="0" stroke="#000000" stroke-width="1" stroke-opacity="0"></use></g></g><g><use xlink:href="#a52TKicgr3" opacity="1" fill="#7d4106" fill-opacity="1"></use><g><use xlink:href="#a52TKicgr3" opacity="1" fill-opacity="0" stroke="#000000" stroke-width="1" stroke-opacity="0"></use></g></g><g><use xlink:href="#c1z3yiqsV0" opacity="1" fill="#000000" fill-opacity="0"></use><g><use xlink:href="#c1z3yiqsV0" opacity="1" fill-opacity="0" stroke="#000000" stroke-width="1" stroke-opacity="0"></use></g></g><g><use xlink:href="#cP4fCktqD" opacity="1" fill="#7d4106" fill-opacity="1"></use><g><use xlink:href="#cP4fCktqD" opacity="1" fill-opacity="0" stroke="#000000" stroke-width="1" stroke-opacity="0"></use></g></g><g><use xlink:href="#bmYvSBifP" opacity="1" fill="#000000" fill-opacity="0"></use><g><use xlink:href="#bmYvSBifP" opacity="1" fill-opacity="0" stroke="#000000" stroke-width="1" stroke-opacity="0"></use></g></g><g><use xlink:href="#a4TE9jLOJV" opacity="1" fill="#7d4106" fill-opacity="1"></use><g><use xlink:href="#a4TE9jLOJV" opacity="1" fill-opacity="0" stroke="#000000" stroke-width="1" stroke-opacity="0"></use></g></g><g><use xlink:href="#d2whS5IM8k" opacity="1" fill="#000000" fill-opacity="0"></use><g><use xlink:href="#d2whS5IM8k" opacity="1" fill-opacity="0" stroke="#000000" stroke-width="1" stroke-opacity="0"></use></g></g><g><use xlink:href="#b1ZNX83jTE" opacity="1" fill="#7d4106" fill-opacity="1"></use><g><use xlink:href="#b1ZNX83jTE" opacity="1" fill-opacity="0" stroke="#000000" stroke-width="1" stroke-opacity="0"></use></g></g><g><use xlink:href="#hXySfKKFW" opacity="1" fill="#000000" fill-opacity="0"></use><g><use xlink:href="#hXySfKKFW" opacity="1" fill-opacity="0" stroke="#000000" stroke-width="1" stroke-opacity="0"></use></g></g><g><use xlink:href="#a2U2rqEdL" opacity="1" fill="#7d4106" fill-opacity="1"></use><g><use xlink:href="#a2U2rqEdL" opacity="1" fill-opacity="0" stroke="#000000" stroke-width="1" stroke-opacity="0"></use></g></g><g><use xlink:href="#e5e7yNLzy1" opacity="1" fill="#000000" fill-opacity="0"></use><g><use xlink:href="#e5e7yNLzy1" opacity="1" fill-opacity="0" stroke="#000000" stroke-width="1" stroke-opacity="0"></use></g></g><g><use xlink:href="#b1up231xeI" opacity="1" fill="#7d4106" fill-opacity="1"></use><g><use xlink:href="#b1up231xeI" opacity="1" fill-opacity="0" stroke="#000000" stroke-width="1" stroke-opacity="0"></use></g></g><g><use xlink:href="#k1Mztox2J" opacity="1" fill="#000000" fill-opacity="0"></use><g><use xlink:href="#k1Mztox2J" opacity="1" fill-opacity="0" stroke="#000000" stroke-width="1" stroke-opacity="0"></use></g></g><g><use xlink:href="#auvSnbIMK" opacity="1" fill="#7d4106" fill-opacity="1"></use><g><use xlink:href="#auvSnbIMK" opacity="1" fill-opacity="0" stroke="#000000" stroke-width="1" stroke-opacity="0"></use></g></g><g><use xlink:href="#f7bVHYWnK" opacity="1" fill="#000000" fill-opacity="0"></use><g><use xlink:href="#f7bVHYWnK" opacity="1" fill-opacity="0" stroke="#000000" stroke-width="1" stroke-opacity="0"></use></g></g><g><use xlink:href="#b2QwNH7tcb" opacity="1" fill="#7d4106" fill-opacity="1"></use><g><use xlink:href="#b2QwNH7tcb" opacity="1" fill-opacity="0" stroke="#000000" stroke-width="1" stroke-opacity="0"></use></g></g><g><use xlink:href="#aheTVIYgR" opacity="1" fill="#000000" fill-opacity="0"></use><g><use xlink:href="#aheTVIYgR" opacity="1" fill-opacity="0" stroke="#000000" stroke-width="1" stroke-opacity="0"></use></g></g><g><use xlink:href="#bBv6higE6" opacity="1" fill="#7d4106" fill-opacity="1"></use><g><use xlink:href="#bBv6higE6" opacity="1" fill-opacity="0" stroke="#000000" stroke-width="1" stroke-opacity="0"></use></g></g><g><use xlink:href="#b1dX00ozlX" opacity="1" fill="#000000" fill-opacity="0"></use><g><use xlink:href="#b1dX00ozlX" opacity="1" fill-opacity="0" stroke="#000000" stroke-width="1" stroke-opacity="0"></use></g></g><g><use xlink:href="#a4BEegKIvX" opacity="1" fill="#7d4106" fill-opacity="1"></use><g><use xlink:href="#a4BEegKIvX" opacity="1" fill-opacity="0" stroke="#000000" stroke-width="1" stroke-opacity="0"></use></g></g><g><use xlink:href="#b1k4bspMdq" opacity="1" fill="#000000" fill-opacity="0"></use><g><use xlink:href="#b1k4bspMdq" opacity="1" fill-opacity="0" stroke="#000000" stroke-width="1" stroke-opacity="0"></use></g></g></g></g></svg>