<svg heigth="300" viewBox="70 -20 150 150" width="300"><g featurekey="nYIUkx-0" fill="#f5793b" id="SvgjsG5936" transform="matrix(1.3046914051048792,0,0,1.3046914051048792,81.08612679054079,-12.49216668704676)"><path d="M74.638,20.539h-2.44h-5.336h-3.064v-2.852C63.745,10.123,57.576,3.986,50,3.986c-7.577,0-13.745,6.138-13.798,13.702v2.852  h-3.064h-7.776l-3.967,51.867c0,4.687,3.8,8.487,8.487,8.487h1.212V49.436c0-5.14,4.182-9.322,9.322-9.322h19.167  c5.14,0,9.322,4.182,9.323,9.322v4.799v24.741v1.917h1.212c4.687,0,8.487-3.8,8.487-8.487L74.638,20.539z M38.264,30.548  c-1.139,0-2.063-0.924-2.063-2.063c0-1.139,0.924-2.063,2.063-2.063c1.139,0,2.063,0.924,2.063,2.063  C40.327,29.625,39.404,30.548,38.264,30.548z M40.327,20.539v-2.852h0.005c0-5.339,4.329-9.668,9.668-9.668  c5.34,0,9.668,4.328,9.668,9.668h0.005v2.852H50H40.327z M61.642,30.548c-1.139,0-2.063-0.924-2.063-2.063  c0-1.139,0.924-2.063,2.063-2.063c1.139,0,2.063,0.924,2.063,2.063C63.705,29.625,62.782,30.548,61.642,30.548z M65.198,78.976  V54.235v-4.799c0-3.088-2.527-5.615-5.615-5.615H40.416c-3.088,0-5.615,2.527-5.615,5.615V90.4c0,3.088,2.527,5.615,5.615,5.615  h19.167c3.088,0,5.615-2.527,5.615-5.615V78.976z M52.412,93.654h-5.406c-0.802,0-1.452-0.65-1.452-1.452  c0-0.802,0.65-1.452,1.452-1.452h5.406c0.802,0,1.452,0.65,1.452,1.452C53.864,93.003,53.214,93.654,52.412,93.654z M62.219,53.156  v1.079v24.699v2.864v5.133c0,0.793-0.649,1.441-1.442,1.441H39.222c-0.793,0-1.441-0.649-1.441-1.441V52.905  c0-0.793,0.649-1.441,1.441-1.441h21.555c0.793,0,1.442,0.649,1.442,1.441V53.156z M53.822,75.166  c-0.581,0.706-1.336,1.18-2.219,1.422c-0.385,0.105-0.557,0.307-0.539,0.707c0.017,0.392-0.002,0.786-0.003,1.179  c-0.001,0.351-0.179,0.538-0.525,0.547c-0.423,0.011-0.846,0.01-1.269,0.003c-0.371-0.007-0.545-0.217-0.55-0.579  c-0.003-0.287-0.005-0.574-0.008-0.862c-0.006-0.633-0.026-0.66-0.636-0.756c-0.78-0.124-1.545-0.301-2.259-0.647  c-0.561-0.272-0.618-0.412-0.457-1c0.12-0.437,0.24-0.875,0.376-1.308c0.158-0.503,0.293-0.566,0.756-0.325  c0.789,0.411,1.628,0.641,2.506,0.751c0.567,0.071,1.119,0.013,1.644-0.216c0.978-0.427,1.131-1.562,0.305-2.242  c-0.282-0.232-0.601-0.402-0.935-0.549c-0.857-0.377-1.753-0.665-2.563-1.15c-1.314-0.787-2.148-1.867-2.05-3.467  c0.11-1.809,1.133-2.937,2.791-3.54c0.684-0.249,0.687-0.239,0.691-0.954c0.001-0.242-0.003-0.484,0.003-0.726  c0.014-0.539,0.106-0.631,0.641-0.647c0.166-0.005,0.333-0.001,0.499-0.001c1.143-0.002,1.143-0.002,1.148,1.143  c0.003,0.808,0.003,0.812,0.809,0.938c0.617,0.096,1.206,0.278,1.776,0.53c0.315,0.139,0.433,0.358,0.337,0.69  c-0.144,0.493-0.277,0.99-0.435,1.479c-0.149,0.463-0.297,0.53-0.741,0.315c-0.892-0.432-1.829-0.612-2.815-0.558  c-0.259,0.014-0.511,0.049-0.751,0.153c-0.852,0.373-0.99,1.313-0.265,1.893c0.367,0.294,0.786,0.506,1.222,0.687  c0.754,0.312,1.514,0.612,2.23,1.008C54.814,70.348,55.429,73.214,53.822,75.166z" xmlns="http://www.w3.org/2000/svg"></path></g></svg>