<?xml version="1.0" encoding="UTF-8" standalone="no"?>
<!DOCTYPE svg PUBLIC "-//W3C//DTD SVG 1.1//EN" "http://www.w3.org/Graphics/SVG/1.1/DTD/svg11.dtd">
<svg version="1.1" xmlns="http://www.w3.org/2000/svg" xmlns:xlink="http://www.w3.org/1999/xlink" preserveAspectRatio="xMidYMid meet" viewBox="0 0 640 640" width="640" height="640"><defs><path d="M478.39 117.53L442.42 117.53L421.76 117.53C421.76 106 421.76 99.59 421.76 98.31C421.41 47.32 379.82 5.95 328.75 5.95C277.67 5.95 236.1 47.32 235.74 98.31C235.74 99.59 235.74 106 235.74 117.54L215.09 117.54L162.67 117.54C146.62 327.32 137.71 443.86 135.93 467.17C135.93 498.76 161.54 524.38 193.14 524.38C193.68 524.38 196.4 524.38 201.31 524.38C201.31 397.15 201.31 326.46 201.31 312.32C201.31 277.68 229.5 249.48 264.15 249.48C277.07 249.48 380.43 249.48 393.35 249.48C428 249.48 456.19 277.68 456.2 312.32C456.2 314.48 456.2 325.26 456.2 344.67L456.2 511.45L456.2 524.37C461.1 524.37 463.82 524.37 464.37 524.37C495.96 524.37 521.58 498.76 521.58 467.16C519.79 443.85 510.88 327.31 494.83 117.53L478.39 117.53ZM235.73 171.09C235.73 163.42 241.96 157.19 249.64 157.19C257.32 157.19 263.55 163.42 263.55 171.09C263.55 178.78 257.32 185 249.64 185C241.96 185 235.73 178.77 235.73 171.09ZM263.55 98.31C263.57 98.31 263.58 98.31 263.58 98.31C263.58 62.32 292.76 33.13 328.75 33.13C364.75 33.13 393.92 62.31 393.92 98.31C393.92 98.31 393.94 98.31 393.96 98.31L393.96 117.53L328.75 117.53L263.55 117.53L263.55 98.31ZM393.32 171.09C393.32 163.42 399.55 157.19 407.23 157.19C414.91 157.19 421.14 163.42 421.14 171.09C421.14 178.78 414.91 185 407.23 185C399.55 185 393.32 178.77 393.32 171.09ZM431.2 344.67C431.2 325.26 431.2 314.48 431.2 312.32C431.2 291.51 414.17 274.47 393.35 274.47C380.43 274.47 277.07 274.47 264.15 274.47C243.33 274.47 226.3 291.51 226.3 312.32C226.3 339.94 226.3 560.85 226.3 588.46C226.3 609.28 243.33 626.31 264.15 626.31C277.07 626.31 380.43 626.31 393.35 626.31C414.17 626.31 431.2 609.28 431.2 588.46C431.2 583.33 431.2 557.66 431.2 511.45L431.2 344.67ZM308.57 610.39C303.16 610.39 298.78 606.01 298.78 600.61C298.78 595.2 303.16 590.82 308.57 590.82C312.21 590.82 341.37 590.82 345.01 590.82C350.42 590.82 354.8 595.2 354.8 600.61C354.8 606.01 350.42 610.39 345.01 610.39C337.72 610.39 312.21 610.39 308.57 610.39ZM411.12 344.67L411.12 511.17L411.12 530.47C411.12 551.23 411.12 562.77 411.12 565.08C411.12 570.42 406.74 574.79 401.4 574.79C386.87 574.79 270.63 574.79 256.1 574.79C250.75 574.79 246.38 570.41 246.38 565.08C246.38 542.14 246.38 358.64 246.38 335.71C246.38 330.36 250.76 325.99 256.1 325.99C270.63 325.99 386.87 325.99 401.4 325.99C406.74 325.99 411.12 330.37 411.12 335.71C411.12 335.82 411.12 336.39 411.12 337.4L411.12 344.67ZM339.56 495.35C336.96 496.06 335.8 497.42 335.92 500.12C336.04 502.76 335.91 505.42 335.9 508.07C335.9 510.43 334.7 511.69 332.36 511.75C329.51 511.83 326.66 511.82 323.81 511.77C321.31 511.73 320.14 510.31 320.1 507.87C320.08 505.94 320.07 504 320.05 502.06C320.01 497.79 319.87 497.61 315.76 496.96C310.5 496.13 305.35 494.94 300.53 492.6C296.75 490.77 296.37 489.83 297.45 485.86C298.26 482.92 299.07 479.96 299.99 477.05C301.05 473.65 301.96 473.23 305.08 474.85C310.4 477.63 316.06 479.18 321.98 479.92C325.8 480.4 329.52 480 333.06 478.46C339.65 475.58 340.68 467.93 335.11 463.35C333.21 461.78 331.06 460.64 328.81 459.65C323.03 457.11 316.99 455.16 311.53 451.89C302.68 446.59 297.06 439.31 297.72 428.52C298.46 416.33 305.35 408.73 316.53 404.66C321.14 402.98 321.16 403.05 321.19 398.23C321.19 396.6 321.17 394.97 321.21 393.34C321.3 389.7 321.92 389.08 325.53 388.98C326.65 388.94 327.77 388.97 328.89 388.97C336.6 388.95 336.6 388.95 336.63 396.67C336.65 402.12 336.65 402.15 342.08 403C346.24 403.64 350.21 404.87 354.06 406.57C356.18 407.51 356.98 408.98 356.33 411.22C355.36 414.54 354.46 417.89 353.4 421.19C352.39 424.31 351.39 424.76 348.4 423.31C342.39 420.4 336.07 419.19 329.43 419.55C327.68 419.65 325.98 419.88 324.36 420.58C318.62 423.1 317.69 429.43 322.58 433.34C325.05 435.33 327.87 436.75 330.81 437.97C335.9 440.08 341.02 442.1 345.85 444.77C361.2 453.29 365.35 472.61 354.51 485.77C350.6 490.53 345.51 493.72 339.56 495.35Z" id="b27joObNl6"></path></defs><g><g><g><use xlink:href="#b27joObNl6" opacity="1" fill="#215c96" fill-opacity="1"></use><g><use xlink:href="#b27joObNl6" opacity="1" fill-opacity="0" stroke="#000000" stroke-width="1" stroke-opacity="0"></use></g></g></g></g></svg>