<?xml version="1.0" encoding="UTF-8" standalone="no"?>
<!DOCTYPE svg PUBLIC "-//W3C//DTD SVG 1.1//EN" "http://www.w3.org/Graphics/SVG/1.1/DTD/svg11.dtd">
<svg version="1.1" xmlns="http://www.w3.org/2000/svg" xmlns:xlink="http://www.w3.org/1999/xlink" preserveAspectRatio="xMidYMid meet" viewBox="0 0 640 640" width="640" height="640"><defs><path d="M476.89 262.07C477.03 259.32 477.14 256.56 477.14 253.8C477.14 250.51 477 247.25 476.8 244.01C477.24 244.14 477.69 244.21 478.14 244.21C479.59 244.21 481.01 243.52 481.9 242.25C483.34 240.18 482.84 237.32 480.77 235.88C480.25 235.52 476.15 232.66 475.63 232.3C474.69 225.46 473.32 218.76 471.53 212.23C471.97 212.48 475.44 214.47 475.87 214.72C476.6 215.13 477.37 215.32 478.15 215.32C479.73 215.32 481.28 214.5 482.12 213.02C483.38 210.83 482.62 208.03 480.43 206.78C479.13 206.03 468.72 200.07 467.42 199.33C464.43 191.23 460.77 183.46 456.54 176.05C457.12 175.59 461.75 171.88 462.33 171.42C464.3 169.84 464.62 166.96 463.04 164.99C461.46 163.02 458.59 162.69 456.61 164.28C456.12 164.66 452.23 167.78 451.74 168.17C447.79 162.1 443.44 156.31 438.72 150.86C439.75 150.03 448.02 143.41 449.05 142.58C451.02 141 451.35 138.12 449.76 136.15C448.19 134.18 445.31 133.85 443.33 135.44C442.25 136.3 433.6 143.22 432.52 144.09C429.14 140.6 425.6 137.28 421.91 134.12C422.02 134.03 422.93 133.3 423.05 133.21C425.02 131.62 425.34 128.75 423.76 126.77C422.18 124.8 419.3 124.48 417.33 126.06C417.06 126.28 414.9 128.01 414.63 128.22C409.75 124.52 404.65 121.11 399.35 117.99C399.35 117.41 399.34 112.74 399.34 112.16C399.33 109.63 397.28 107.59 394.76 107.59C394.76 107.59 394.76 107.59 394.76 107.59C392.23 107.6 390.19 109.65 390.19 112.18C390.19 112.26 390.19 112.91 390.19 113C385.27 110.52 380.21 108.28 375.01 106.32C375.27 106.18 377.37 105.12 377.63 104.99C379.87 103.84 380.76 101.08 379.61 98.83C378.45 96.58 375.7 95.69 373.45 96.85C372.38 97.39 363.86 101.77 362.79 102.31C358.96 101.22 355.09 100.22 351.15 99.42C351.53 98.05 351.28 96.53 350.33 95.34C348.75 93.36 345.87 93.04 343.9 94.62C343.52 94.92 340.53 97.32 340.15 97.62C334.05 96.82 327.85 96.36 321.56 96.28C323.04 94.65 323.17 92.14 321.75 90.36C320.17 88.4 317.29 88.07 315.32 89.65C314.49 90.31 307.87 95.62 307.04 96.28C306.84 96.44 306.66 96.63 306.49 96.82C299.16 97.43 291.97 98.53 284.95 100.11C284.27 99.43 278.82 93.98 278.14 93.3C276.35 91.51 273.46 91.51 271.67 93.3C269.89 95.09 269.89 97.98 271.67 99.77C271.97 100.07 274.38 102.48 274.69 102.78C265.21 105.6 256.12 109.29 247.48 113.76C246.52 113.39 238.84 110.46 237.88 110.09C235.52 109.2 232.87 110.37 231.97 112.73C231.07 115.09 232.25 117.74 234.61 118.64C234.86 118.73 236.86 119.5 237.11 119.59C230.01 123.97 223.3 128.92 216.99 134.34C216.5 132.75 215.16 131.49 213.41 131.19C210.93 130.76 208.56 132.45 208.13 134.94C207.98 135.86 206.74 143.21 206.58 144.13C200.98 149.9 195.83 156.1 191.15 162.66C190.8 162.42 188.04 160.5 187.7 160.26C185.63 158.81 182.78 159.32 181.33 161.39C179.89 163.46 180.39 166.32 182.46 167.76C182.82 168.01 185.69 170.02 186.05 170.27C182.64 175.7 179.55 181.36 176.8 187.21C176.4 186.81 173.15 183.56 172.74 183.15C170.96 181.37 168.06 181.37 166.27 183.15C164.49 184.94 164.49 187.84 166.27 189.62C166.94 190.29 172.25 195.61 172.92 196.27C170.61 202.13 168.61 208.14 167.01 214.32C166.12 214.86 158.97 219.24 158.08 219.79C155.92 221.11 155.25 223.92 156.57 226.08C157.43 227.49 158.93 228.26 160.47 228.26C161.29 228.26 162.11 228.05 162.86 227.59C163.01 227.49 164.23 226.74 164.39 226.65C163.36 232.54 162.63 238.54 162.29 244.64C161.62 244.96 156.25 247.53 155.58 247.85C153.3 248.94 152.34 251.67 153.43 253.95C154.22 255.59 155.86 256.55 157.57 256.55C158.23 256.55 158.9 256.41 159.54 256.1C159.79 255.98 161.77 255.03 162.02 254.91C162.04 257.3 162.12 259.69 162.24 262.06C154.93 265.09 148.28 269.68 145.79 275.42C145.36 276.4 145.29 277.51 145.6 278.54C149.08 290.27 176.94 384.07 180.42 395.79C182.62 405.85 191.7 424.55 210.68 424.55C232.46 424.55 406.67 424.55 428.45 424.55C447.43 424.55 456.5 405.84 458.71 395.78C462.19 384.06 490.05 290.27 493.53 278.55C493.84 277.52 493.77 276.41 493.34 275.43C490.86 269.7 484.21 265.1 476.89 262.07ZM171.24 250.5C173.22 249.55 189.07 241.95 191.05 241C193.33 239.91 194.29 237.18 193.2 234.9C192.1 232.62 189.38 231.66 187.1 232.76C185.57 233.49 173.34 239.35 171.82 240.09C173 227.31 175.78 215 180 203.36C181.1 204.46 189.89 213.25 190.99 214.34C191.88 215.24 193.05 215.68 194.22 215.68C195.4 215.68 196.56 215.24 197.46 214.34C199.25 212.55 199.25 209.66 197.46 207.87C196.09 206.5 185.1 195.52 183.72 194.14C188.96 182.28 195.7 171.22 203.71 161.22C203.57 162.04 202.47 168.58 202.33 169.4C201.91 171.89 203.59 174.25 206.08 174.67C206.34 174.72 206.59 174.74 206.84 174.74C209.04 174.74 210.97 173.15 211.35 170.92C211.73 168.68 214.76 150.72 215.14 148.47C233.44 130.33 256.43 116.9 282.1 110.19C283.53 111.62 294.96 123.05 296.39 124.48C297.28 125.38 298.46 125.82 299.63 125.82C300.8 125.82 301.97 125.38 302.87 124.48C304.65 122.7 304.65 119.8 302.87 118.01C301.85 117 293.74 108.88 292.72 107.87C301.44 106.27 310.41 105.39 319.58 105.39C330.17 105.39 340.5 106.52 350.48 108.64C349.67 109.06 343.19 112.38 342.38 112.79C340.13 113.94 339.24 116.7 340.4 118.95C341.21 120.53 342.81 121.44 344.47 121.44C345.17 121.44 345.89 121.27 346.56 120.93C348.28 120.05 362.05 112.99 363.77 112.1C373.01 114.99 381.86 118.76 390.23 123.3C390.24 125.68 390.28 144.74 390.29 147.13C390.3 149.65 392.35 151.69 394.87 151.69C394.87 151.69 394.87 151.69 394.88 151.69C397.4 151.69 399.44 149.63 399.44 147.11C399.44 145.27 399.4 130.6 399.39 128.76C408.83 134.81 417.55 141.87 425.37 149.83C424.44 150.57 416.99 156.53 416.06 157.27C414.1 158.85 413.77 161.73 415.35 163.7C416.26 164.83 417.58 165.42 418.93 165.42C419.93 165.42 420.94 165.09 421.78 164.41C422.76 163.63 430.6 157.36 431.58 156.57C440.77 167.14 448.48 179 454.41 191.86C453.98 191.61 450.55 189.65 450.12 189.4C447.93 188.14 445.13 188.9 443.88 191.09C442.62 193.29 443.38 196.08 445.57 197.34C447.01 198.16 458.47 204.73 459.91 205.55C463.11 214.84 465.41 224.54 466.71 234.55C466.68 235.1 466.75 235.65 466.92 236.18C467.61 241.96 468 247.82 468 253.78C468 255.58 467.97 257.37 467.9 259.16C464.65 258.42 461.55 258.01 458.91 258.01C452.89 258.01 446.05 261.85 438.8 265.92C436.5 267.21 434.09 268.55 431.78 269.71C430.89 268.61 423.74 259.8 422.85 258.69C421.25 256.73 418.37 256.43 416.41 258.02C414.45 259.62 414.15 262.5 415.74 264.46C416.4 265.27 421.66 271.75 422.31 272.56C418.73 272.09 413.36 268.89 408.57 265.99C401.77 261.89 395.34 258.01 389.25 258.01C383.23 258.01 376.39 261.85 369.14 265.92C363.51 269.08 357.12 272.66 353.5 272.66C349.96 272.66 344.09 269.11 338.9 265.99C332.1 261.89 325.67 258.02 319.59 258.02C313.5 258.02 307.07 261.89 300.27 265.99C295.09 269.11 289.22 272.66 285.68 272.66C282.05 272.66 275.67 269.08 270.04 265.92C262.79 261.85 255.94 258.01 249.93 258.01C243.84 258.01 237.41 261.89 230.61 265.99C229.38 266.73 228.11 267.5 226.84 268.23C226.66 267.37 225.17 260.43 224.99 259.57C224.46 257.09 222.02 255.51 219.56 256.05C217.09 256.58 215.51 259.01 216.04 261.48C216.27 262.56 218.12 271.17 218.35 272.25C217.5 272.49 216.71 272.66 216.02 272.66C212.4 272.66 206.01 269.08 200.38 265.92C193.13 261.85 186.29 258.01 180.27 258.01C177.63 258.01 174.53 258.42 171.28 259.16C171.19 257.39 171.16 255.59 171.16 253.8C171.16 252.69 171.22 251.6 171.24 250.5ZM449.8 393.69C449.61 394.57 444.89 415.41 428.45 415.41C406.68 415.41 232.46 415.41 210.69 415.41C194.25 415.41 189.53 394.59 189.34 393.72C189.32 393.6 189.29 393.48 189.26 393.36C185.82 381.81 158.36 289.34 154.93 277.78C158.84 272.25 171.95 267.18 180.25 267.18C183.87 267.18 190.26 270.76 195.89 273.92C203.14 277.98 209.98 281.83 216 281.83C222.09 281.83 228.51 277.95 235.31 273.85C240.49 270.72 246.37 267.18 249.91 267.18C253.54 267.18 259.92 270.76 265.55 273.92C272.8 277.99 279.64 281.83 285.66 281.83C291.75 281.83 298.17 277.95 304.98 273.86C310.16 270.73 316.03 267.19 319.57 267.19C323.12 267.19 328.98 270.73 334.16 273.85C340.97 277.95 347.4 281.83 353.49 281.83C359.5 281.83 366.35 277.99 373.6 273.92C379.23 270.76 385.61 267.18 389.23 267.18C392.78 267.18 398.65 270.72 403.83 273.85C410.63 277.95 417.06 281.83 423.15 281.83C429.16 281.83 436.01 277.98 443.26 273.92C448.89 270.76 455.27 267.18 458.89 267.18C467.18 267.18 480.3 272.25 484.22 277.78C481.93 285.49 470.49 324.01 449.89 393.35C449.85 393.5 449.82 393.61 449.8 393.69Z" id="g14sDQcPFe"></path><path d="M395.33 202.82C398.43 201.23 423.3 188.47 426.41 186.88C428.66 185.73 429.55 182.97 428.39 180.72C427.24 178.47 424.49 177.58 422.24 178.74C419.13 180.33 394.26 193.09 391.15 194.68C388.9 195.83 388.01 198.59 389.17 200.84C389.98 202.42 391.58 203.33 393.24 203.33C393.94 203.33 394.66 203.17 395.33 202.82Z" id="ifm5dRMcP"></path><path d="M301.9 175.74C303.68 175.74 305.37 174.7 306.11 172.95C307.48 169.74 318.43 144.02 319.79 140.81C320.78 138.48 319.7 135.8 317.37 134.81C315.05 133.82 312.36 134.9 311.37 137.23C310 140.44 299.06 166.16 297.69 169.38C296.71 171.7 297.79 174.39 300.11 175.38C300.7 175.63 301.3 175.74 301.9 175.74Z" id="fEbCGpQNv"></path><path d="M258.29 178.33C261.05 180.46 283.17 197.56 285.93 199.7C286.77 200.34 287.75 200.65 288.73 200.65C290.1 200.65 291.45 200.04 292.35 198.87C293.9 196.87 293.53 194 291.53 192.45C288.77 190.32 266.66 173.22 263.89 171.09C261.89 169.54 259.02 169.91 257.47 171.91C255.93 173.91 256.29 176.78 258.29 178.33Z" id="b3fm7FEoFH"></path><path d="M261.38 244.27C264.85 244.74 292.54 248.5 296.01 248.97C296.21 248.99 296.42 249.01 296.62 249.01C298.88 249.01 300.84 247.34 301.15 245.05C301.49 242.55 299.74 240.24 297.23 239.9C293.77 239.43 266.08 235.68 262.61 235.21C260.09 234.87 257.8 236.62 257.46 239.13C257.12 241.63 258.88 243.93 261.38 244.27Z" id="h24iA9HoIw"></path><path d="M315.58 228.27C316.45 228.27 317.33 228.02 318.11 227.51C321.02 225.57 344.31 210.12 347.22 208.19C349.33 206.79 349.9 203.95 348.5 201.85C347.1 199.74 344.27 199.17 342.16 200.57C339.25 202.5 315.96 217.95 313.05 219.88C310.95 221.28 310.37 224.12 311.77 226.22C312.65 227.55 314.11 228.27 315.58 228.27Z" id="bfQVzqucg"></path><path d="M363.87 186.21C364.51 186.21 365.16 186.07 365.79 185.79C368.08 184.73 369.08 182.01 368.01 179.72C366.55 176.55 354.8 151.19 353.34 148.02C352.28 145.72 349.55 144.72 347.27 145.79C344.97 146.85 343.97 149.56 345.03 151.86C346.01 153.97 350.91 164.54 359.71 183.56C361.33 185.33 362.71 186.21 363.87 186.21Z" id="h6oWFoHBk"></path><path d="M415.83 224.31C418.42 226.66 439.1 245.46 441.69 247.81C442.56 248.61 443.66 249.01 444.76 249.01C446.01 249.01 447.24 248.5 448.15 247.51C449.85 245.64 449.71 242.75 447.84 241.05C445.26 238.7 424.57 219.9 421.99 217.55C420.12 215.84 417.23 215.98 415.53 217.85C413.83 219.73 413.97 222.62 415.83 224.31Z" id="c9Us4fk0uv"></path><path d="M218.92 230.86C220.51 230.86 222.06 230.03 222.9 228.55C224.63 225.51 238.46 201.22 240.19 198.19C241.44 195.99 240.67 193.2 238.47 191.95C236.28 190.7 233.48 191.46 232.23 193.66C230.5 196.7 216.68 220.98 214.95 224.02C213.7 226.22 214.47 229.01 216.66 230.26C217.38 230.67 218.15 230.86 218.92 230.86Z" id="c2Z02abDBq"></path><path d="M360 265.12C361.59 265.12 363.13 264.3 363.97 262.82C365.7 259.78 379.53 235.49 381.26 232.46C382.51 230.26 381.74 227.47 379.55 226.22C377.35 224.96 374.55 225.73 373.3 227.92C371.57 230.96 357.74 255.24 356.02 258.28C354.77 260.48 355.53 263.27 357.73 264.53C358.45 264.93 359.23 265.12 360 265.12Z" id="amSlD45tC"></path><path d="M246.48 156.69C249.21 154.51 271.03 137.05 273.76 134.87C275.73 133.29 276.05 130.41 274.47 128.44C272.89 126.47 270.02 126.14 268.04 127.72C265.32 129.91 243.49 147.37 240.76 149.55C238.79 151.13 238.47 154.01 240.05 155.98C240.95 157.11 242.28 157.7 243.62 157.7C244.63 157.7 245.64 157.37 246.48 156.69Z" id="bgHcUEdqy"></path><path d="M71.25 512.35L71.25 531.05L71.25 564.41L59.62 564.41C59.62 562.11 59.62 560.84 59.62 560.58C59.1 561.91 55.64 565.15 49.75 565.15C40.99 565.15 30.9 558.89 30.9 545.19C30.9 532.01 40.99 525.45 49.75 525.45C55.64 525.45 59.1 528.84 59.62 529.65C59.62 528.5 59.62 522.73 59.62 512.35L71.25 512.35ZM60.13 545.19C60.13 539 56.23 535.69 51.44 535.69C46.44 535.69 42.16 539.08 42.16 545.19C42.16 551.52 46.44 554.91 51.44 554.91C56.23 554.91 60.13 551.6 60.13 545.19ZM117.94 545.41C117.94 558.89 106.45 565.15 97.76 565.15C89.07 565.15 77.58 558.89 77.58 545.41C77.58 532.01 89.07 525.45 97.76 525.45C106.45 525.45 117.94 532.01 117.94 545.41ZM88.85 545.41C88.85 551.52 93.34 554.91 97.76 554.91C102.18 554.91 106.74 551.52 106.74 545.41C106.74 539.08 102.18 535.69 97.76 535.69C93.34 535.69 88.85 539.08 88.85 545.41ZM159.76 556.01C157.11 560.36 153.43 563.08 149.01 564.26C149.02 564.26 149.07 564.26 149.16 564.26C147 566.07 145.79 567.08 145.55 567.28C148.87 568.16 152.69 570.08 152.69 573.54C152.69 579.8 145.04 582.38 135.83 580.02C135.91 579.76 136.49 577.7 136.57 577.44C141.35 578.47 143.71 575.9 143.71 573.54C143.71 571.99 141.13 569.64 138.7 571.55C138.47 571.35 137.32 570.32 135.24 568.46L137.3 564.26C137.61 564.26 137.79 564.26 137.82 564.26C130.46 562.27 123.09 556.16 123.09 545.34C123.09 532.01 134.58 525.45 143.12 525.45C150.12 525.45 156.01 528.4 159.62 534.59C158.73 535.01 151.66 538.36 150.78 538.78C148.87 537.16 147.32 535.69 143.27 535.69C138.85 535.69 134.36 539.08 134.36 545.34C134.36 551.52 138.85 554.76 143.27 554.76C147.32 554.76 148.87 553.44 150.78 551.82C152.58 552.66 157.97 555.18 159.76 556.01ZM165.29 548.06C165.29 546.6 165.29 539.28 165.29 526.12L176.92 526.12C176.92 538.8 176.92 545.84 176.92 547.25C176.92 553.07 178.91 554.91 182.59 554.91C187.82 554.91 190.84 549.83 191.58 547.62C191.58 546.19 191.58 539.02 191.58 526.12L203.21 526.12L203.21 564.41L191.58 564.41C191.58 560.43 191.58 558.22 191.58 557.78C190.84 559.62 186.94 565 179.72 565C172.58 565 165.29 560.21 165.29 548.06ZM238.34 525.75C238.34 526.86 238.34 535.76 238.34 536.87C237.45 536.65 236.42 536.65 235.68 536.65C228.62 536.65 222.95 541.73 222.36 548.8C222.36 549.84 222.36 555.04 222.36 564.41L210.72 564.41L210.72 526.12L222.36 526.12C222.36 531.73 222.36 534.85 222.36 535.47C224.12 529.73 228.54 525.53 235.32 525.53C236.35 525.53 237.38 525.53 238.34 525.75ZM283.48 526.12L283.48 564.41L271.84 564.41C271.84 562.11 271.84 560.84 271.84 560.58C271.33 561.91 267.86 565.15 261.97 565.15C253.21 565.15 243.12 558.89 243.12 545.19C243.12 532.01 253.21 525.45 261.97 525.45C267.86 525.45 271.33 528.84 271.84 529.65C271.84 529.42 271.84 528.24 271.84 526.12L283.48 526.12ZM272.36 545.19C272.36 539 268.45 535.69 263.67 535.69C258.66 535.69 254.39 539.08 254.39 545.19C254.39 551.52 258.66 554.91 263.67 554.91C268.45 554.91 272.36 551.6 272.36 545.19ZM309.18 538.19C308.14 535.54 306.6 534.66 304.9 534.66C303.36 534.66 301.81 535.54 301.81 537.02C301.81 538.42 302.7 539.23 304.39 539.81C304.87 539.98 308.76 541.34 309.25 541.51C314.7 543.5 320.22 545.48 320.22 553.14C320.22 560.87 312.49 565.29 304.54 565.29C297.39 565.29 290.69 561.1 289.07 554.39C289.99 554.11 297.29 551.81 298.2 551.52C299.16 553.66 300.85 556.09 304.54 556.09C307.04 556.09 308.66 554.47 308.66 553C308.66 552.26 308.07 551.3 306.23 550.57C305.78 550.4 302.19 549.11 301.74 548.95C294.08 546.15 290.47 542.24 290.47 536.8C290.47 529.65 297.1 525.45 304.39 525.45C311.83 525.45 316.76 529.5 318.97 535.62C317.01 536.13 311.13 537.68 309.18 538.19ZM387.45 512.35L387.45 531.05L387.45 564.41L375.82 564.41C375.82 562.11 375.82 560.84 375.82 560.58C375.3 561.91 371.84 565.15 365.95 565.15C357.19 565.15 347.1 558.89 347.1 545.19C347.1 532.01 357.19 525.45 365.95 525.45C371.84 525.45 375.3 528.84 375.82 529.65C375.82 528.5 375.82 522.73 375.82 512.35L387.45 512.35ZM376.33 545.19C376.33 539 372.43 535.69 367.64 535.69C362.64 535.69 358.37 539.08 358.37 545.19C358.37 551.52 362.64 554.91 367.64 554.91C372.43 554.91 376.33 551.6 376.33 545.19ZM434.14 526.12L434.14 564.41L422.5 564.41C422.5 562.11 422.5 560.84 422.5 560.58C421.99 561.91 418.53 565.15 412.64 565.15C403.87 565.15 393.79 558.89 393.79 545.19C393.79 532.01 403.87 525.45 412.64 525.45C418.53 525.45 421.99 528.84 422.5 529.65C422.5 529.42 422.5 528.24 422.5 526.12L434.14 526.12ZM423.02 545.19C423.02 539 419.12 535.69 414.33 535.69C409.32 535.69 405.05 539.08 405.05 545.19C405.05 551.52 409.32 554.91 414.33 554.91C419.12 554.91 423.02 551.6 423.02 545.19ZM501.66 542.47C501.66 543.93 501.66 551.24 501.66 564.41L490.03 564.41C490.03 551.73 490.03 544.68 490.03 543.28C490.03 537.46 488.04 535.62 484.36 535.62C479.13 535.62 476.11 540.7 475.38 542.91C475.38 544.34 475.38 551.51 475.38 564.41L463.74 564.41L463.74 526.12L475.38 526.12C475.38 530.09 475.38 532.3 475.38 532.74C476.11 530.9 480.02 525.53 487.23 525.53C494.37 525.53 501.66 530.31 501.66 542.47ZM520.37 522.14L508.73 522.14L508.73 512.35L520.37 512.35L520.37 522.14ZM520.37 564.41L508.73 564.41L508.73 526.12L520.37 526.12L520.37 564.41ZM563.23 534.59C562.34 535.01 555.27 538.36 554.39 538.78C552.47 537.16 550.93 535.69 546.88 535.69C542.46 535.69 537.97 539.08 537.97 545.34C537.97 551.52 542.46 554.76 546.88 554.76C550.93 554.76 552.47 553.44 554.39 551.82C555.29 552.24 562.47 555.59 563.37 556.01C559.62 562.2 553.87 565 546.73 565C538.19 565 526.7 558.89 526.7 545.34C526.7 532.01 538.19 525.45 546.73 525.45C553.73 525.45 559.62 528.4 563.23 534.59ZM583.4 549.53L580.97 552.11L580.97 564.41L569.34 564.41L569.34 550.49L569.34 512.35L580.97 512.35L580.97 537.9L591.8 526.12L605.72 526.12L590.55 542.1L609.1 564.41L595.85 564.41L583.4 549.53Z" id="b2uTV53jh4"></path></defs><g><g><g><use xlink:href="#g14sDQcPFe" opacity="1" fill="#7d4106" fill-opacity="1"></use><g><use xlink:href="#g14sDQcPFe" opacity="1" fill-opacity="0" stroke="#000000" stroke-width="1" stroke-opacity="0"></use></g></g><g><use xlink:href="#ifm5dRMcP" opacity="1" fill="#7d4106" fill-opacity="1"></use><g><use xlink:href="#ifm5dRMcP" opacity="1" fill-opacity="0" stroke="#000000" stroke-width="1" stroke-opacity="0"></use></g></g><g><use xlink:href="#fEbCGpQNv" opacity="1" fill="#7d4106" fill-opacity="1"></use><g><use xlink:href="#fEbCGpQNv" opacity="1" fill-opacity="0" stroke="#000000" stroke-width="1" stroke-opacity="0"></use></g></g><g><use xlink:href="#b3fm7FEoFH" opacity="1" fill="#7d4106" fill-opacity="1"></use><g><use xlink:href="#b3fm7FEoFH" opacity="1" fill-opacity="0" stroke="#000000" stroke-width="1" stroke-opacity="0"></use></g></g><g><use xlink:href="#h24iA9HoIw" opacity="1" fill="#7d4106" fill-opacity="1"></use><g><use xlink:href="#h24iA9HoIw" opacity="1" fill-opacity="0" stroke="#000000" stroke-width="1" stroke-opacity="0"></use></g></g><g><use xlink:href="#bfQVzqucg" opacity="1" fill="#7d4106" fill-opacity="1"></use><g><use xlink:href="#bfQVzqucg" opacity="1" fill-opacity="0" stroke="#000000" stroke-width="1" stroke-opacity="0"></use></g></g><g><use xlink:href="#h6oWFoHBk" opacity="1" fill="#7d4106" fill-opacity="1"></use><g><use xlink:href="#h6oWFoHBk" opacity="1" fill-opacity="0" stroke="#000000" stroke-width="1" stroke-opacity="0"></use></g></g><g><use xlink:href="#c9Us4fk0uv" opacity="1" fill="#7d4106" fill-opacity="1"></use><g><use xlink:href="#c9Us4fk0uv" opacity="1" fill-opacity="0" stroke="#000000" stroke-width="1" stroke-opacity="0"></use></g></g><g><use xlink:href="#c2Z02abDBq" opacity="1" fill="#7d4106" fill-opacity="1"></use><g><use xlink:href="#c2Z02abDBq" opacity="1" fill-opacity="0" stroke="#000000" stroke-width="1" stroke-opacity="0"></use></g></g><g><use xlink:href="#amSlD45tC" opacity="1" fill="#7d4106" fill-opacity="1"></use><g><use xlink:href="#amSlD45tC" opacity="1" fill-opacity="0" stroke="#000000" stroke-width="1" stroke-opacity="0"></use></g></g><g><use xlink:href="#bgHcUEdqy" opacity="1" fill="#7d4106" fill-opacity="1"></use><g><use xlink:href="#bgHcUEdqy" opacity="1" fill-opacity="0" stroke="#000000" stroke-width="1" stroke-opacity="0"></use></g></g><g><use xlink:href="#b2uTV53jh4" opacity="1" fill="#7d4106" fill-opacity="1"></use><g><use xlink:href="#b2uTV53jh4" opacity="1" fill-opacity="0" stroke="#000000" stroke-width="1" stroke-opacity="0"></use></g></g></g></g></svg>